<svg xmlns="http://www.w3.org/2000/svg" viewBox="0 0 661.8 204" role="img" aria-label="ITMO">
  <path d="M61.80 198L9 198L9 58L61.80 58L61.80 198ZM194.20 198L141.40 198L141.40 100.40L104.80 100.40L104.80 58L230.80 58L230.80 100.40L194.20 100.40L194.20 198ZM325.60 198L272.80 198L272.80 58L325.80 58L356.40 117L387 58L438.80 58L438.80 198L386 198L386 142L369.80 173L341.80 173L325.60 142L325.60 198ZM552.80 201L552.80 201Q538 201 525 196.80Q512 192.60 502 183.90Q492 175.20 486.40 161.50Q480.80 147.80 480.80 129L480.80 129L480.80 125Q480.80 107 486.40 93.90Q492 80.80 502 72.10Q512 63.40 525 59.20Q538 55 552.80 55L552.80 55Q567.60 55 580.60 59.20Q593.60 63.40 603.60 72.10Q613.60 80.80 619.20 93.90Q624.80 107 624.80 125L624.80 125L624.80 129Q624.80 147.60 619.20 161.20Q613.60 174.80 603.60 183.60Q593.60 192.40 580.60 196.70Q567.60 201 552.80 201ZM552.80 158.20L552.80 158.20Q558.40 158.20 562.40 155.30Q566.40 152.40 568.60 145.90Q570.80 139.40 570.80 129L570.80 129L570.80 125Q570.80 115.40 568.60 109.40Q566.40 103.40 562.40 100.60Q558.40 97.80 552.80 97.80L552.80 97.80Q547.20 97.80 543.20 100.60Q539.20 103.40 537 109.40Q534.80 115.40 534.80 125L534.80 125L534.80 129Q534.80 139.40 537 145.90Q539.20 152.40 543.20 155.30Q547.20 158.20 552.80 158.20Z" fill="#FFFFFF"></path>
  <circle cx="643.8" cy="18" r="14.000000000000002" fill="#FFFFFF"></circle>
</svg>