<svg xmlns="http://www.w3.org/2000/svg" viewBox="0 0 666 264" role="img" aria-label="Университет ИТМО">
  <path d="M7.04 32.48L7.04 32.48Q6.69 32.48 6.24 32.40Q5.79 32.32 5.50 32.22L5.50 32.22L5.50 26.02Q5.95 26.11 6.53 26.18Q7.10 26.24 7.55 26.24L7.55 26.24Q7.97 26.24 8.30 26.19Q8.64 26.14 8.88 26.02Q9.12 25.89 9.18 25.73L9.18 25.73L0.06 9.60L9.47 9.60L12.80 16.64L15.30 9.60L23.74 9.60L17.15 26.08Q16.38 28.03 15.52 29.28Q14.66 30.53 13.52 31.23Q12.38 31.94 10.80 32.21Q9.22 32.48 7.04 32.48ZM41.54 32L33.09 32L33.09 9.60L41.54 9.60L41.54 17.25L46.40 17.25L46.40 9.60L54.85 9.60L54.85 32L46.40 32L46.40 24.03L41.54 24.03L41.54 32ZM73.22 32L65.41 32L65.41 9.60L73.86 9.60L73.86 19.20L79.36 9.60L87.17 9.60L87.17 32L78.72 32L78.72 22.40L73.22 32ZM110.66 32L97.73 32L97.73 9.60L110.69 9.60Q114.50 9.60 116.35 11.04Q118.21 12.48 118.21 15.58L118.21 15.58Q118.21 17.31 117.36 18.54Q116.51 19.78 115.01 20.32L115.01 20.32Q117.09 20.80 118.13 22.14Q119.17 23.49 119.17 25.66L119.17 25.66Q119.17 27.74 118.30 29.17Q117.44 30.59 115.57 31.30Q113.70 32 110.66 32L110.66 32ZM106.18 23.07L106.18 26.50L108.10 26.50Q109.60 26.50 110.16 26.11Q110.72 25.73 110.72 24.77L110.72 24.77Q110.72 23.84 110.14 23.46Q109.57 23.07 108.03 23.07L108.03 23.07L106.18 23.07ZM106.18 15.10L106.18 18.21L107.68 18.21Q108.77 18.21 109.26 17.84Q109.76 17.47 109.76 16.64L109.76 16.64Q109.76 15.81 109.26 15.46Q108.77 15.10 107.74 15.10L107.74 15.10L106.18 15.10ZM146.69 32L129.09 32L129.09 9.60L146.69 9.60L146.69 15.74L137.54 15.74L137.54 18.05L145.73 18.05L145.73 23.23L137.54 23.23L137.54 25.86L146.69 25.86L146.69 32ZM165.22 32L156.77 32L156.77 9.60L167.17 9.60Q170.62 9.60 172.77 10.54Q174.91 11.49 175.92 13.28Q176.93 15.07 176.93 17.70L176.93 17.70Q176.93 20.13 175.92 21.87Q174.91 23.62 172.77 24.54Q170.62 25.47 167.17 25.47L167.17 25.47L165.22 25.47L165.22 32ZM165.22 15.74L165.22 19.65L166.18 19.65Q167.49 19.65 167.98 19.07Q168.48 18.50 168.48 17.70L168.48 17.70Q168.48 16.90 167.97 16.32Q167.46 15.74 166.18 15.74L166.18 15.74L165.22 15.74ZM197.57 32.48L197.57 32.48Q194.37 32.48 191.79 31.34Q189.22 30.21 187.71 27.66Q186.21 25.12 186.21 20.96L186.21 20.96L186.21 20.32Q186.21 17.34 187.09 15.23Q187.97 13.12 189.54 11.76Q191.10 10.40 193.17 9.76Q195.23 9.12 197.57 9.12L197.57 9.12Q199.68 9.12 201.58 9.63Q203.49 10.14 204.98 11.25Q206.46 12.35 207.34 14.16Q208.22 15.97 208.29 18.56L208.29 18.56L199.97 18.56Q199.81 17.02 199.10 16.50Q198.40 15.97 197.57 15.97L197.57 15.97Q196.86 15.97 196.24 16.38Q195.62 16.80 195.23 17.74Q194.85 18.69 194.85 20.32L194.85 20.32L194.85 20.96Q194.85 22.18 195.04 23.06Q195.23 23.94 195.60 24.51Q195.97 25.09 196.46 25.36Q196.96 25.63 197.57 25.63L197.57 25.63Q198.43 25.63 199.12 25.12Q199.81 24.61 199.97 23.04L199.97 23.04L208.29 23.04Q208.22 25.70 207.36 27.50Q206.50 29.31 205.02 30.42Q203.55 31.52 201.63 32Q199.71 32.48 197.57 32.48ZM225.86 32L218.05 32L218.05 9.60L226.50 9.60L226.50 19.20L232 9.60L239.81 9.60L239.81 32L231.36 32L231.36 22.40L225.86 32ZM264.03 32L255.58 32L255.58 16.38L249.73 16.38L249.73 9.60L269.89 9.60L269.89 16.38L264.03 16.38L264.03 32ZM297.41 32L279.81 32L279.81 9.60L297.41 9.60L297.41 15.74L288.26 15.74L288.26 18.05L296.45 18.05L296.45 23.23L288.26 23.23L288.26 25.86L297.41 25.86L297.41 32ZM321.47 32L313.02 32L313.02 16.38L307.17 16.38L307.17 9.60L327.33 9.60L327.33 16.38L321.47 16.38L321.47 32Z" fill="#000000"></path>
  <path d="M61.80 258L9 258L9 118L61.80 118L61.80 258ZM194.20 258L141.40 258L141.40 160.40L104.80 160.40L104.80 118L230.80 118L230.80 160.40L194.20 160.40L194.20 258ZM325.60 258L272.80 258L272.80 118L325.80 118L356.40 177L387 118L438.80 118L438.80 258L386 258L386 202L369.80 233L341.80 233L325.60 202L325.60 258ZM552.80 261L552.80 261Q538 261 525 256.80Q512 252.60 502 243.90Q492 235.20 486.40 221.50Q480.80 207.80 480.80 189L480.80 189L480.80 185Q480.80 167 486.40 153.90Q492 140.80 502 132.10Q512 123.40 525 119.20Q538 115 552.80 115L552.80 115Q567.60 115 580.60 119.20Q593.60 123.40 603.60 132.10Q613.60 140.80 619.20 153.90Q624.80 167 624.80 185L624.80 185L624.80 189Q624.80 207.60 619.20 221.20Q613.60 234.80 603.60 243.60Q593.60 252.40 580.60 256.70Q567.60 261 552.80 261ZM552.80 218.20L552.80 218.20Q558.40 218.20 562.40 215.30Q566.40 212.40 568.60 205.90Q570.80 199.40 570.80 189L570.80 189L570.80 185Q570.80 175.40 568.60 169.40Q566.40 163.40 562.40 160.60Q558.40 157.80 552.80 157.80L552.80 157.80Q547.20 157.80 543.20 160.60Q539.20 163.40 537 169.40Q534.80 175.40 534.80 185L534.80 185L534.80 189Q534.80 199.40 537 205.90Q539.20 212.40 543.20 215.30Q547.20 218.20 552.80 218.20Z" fill="#000000"></path>
  <circle cx="643.8" cy="78" r="14.000000000000002" fill="#000000"></circle>
</svg>