
<svg xmlns="http://www.w3.org/2000/svg" viewBox="0 0 480 240" role="img" aria-label="ITMO structured pattern">
  <defs>
    <symbol id="se" viewBox="0 0 80 80">
      <path d="M 40,4 C 65,4 76,15 76,40 C 76,65 65,76 40,76 C 15,76 4,65 4,40 C 4,15 15,4 40,4 Z"></path>
    </symbol>
  </defs>
  <g fill="#000">
    <use href="#se" x="0" y="0" width="80" height="80"></use>
    <use href="#se" x="100" y="0" width="80" height="80"></use>
    <use href="#se" x="200" y="0" width="80" height="80"></use>
    <use href="#se" x="300" y="0" width="80" height="80"></use>
    <use href="#se" x="400" y="0" width="80" height="80"></use>
    <use href="#se" x="0" y="100" width="80" height="80"></use>
    <use href="#se" x="100" y="100" width="80" height="80"></use>
    <use href="#se" x="200" y="100" width="80" height="80"></use>
    <use href="#se" x="300" y="100" width="80" height="80"></use>
    <use href="#se" x="400" y="100" width="80" height="80"></use>
  </g>
</svg>